<svg xmlns="http://www.w3.org/2000/svg" width="900" height="383" viewBox="0 0 900 383">
  <defs>
    <linearGradient id="bg" x1="0" y1="0" x2="1" y2="1"><stop offset="0" stop-color="#101827"/><stop offset="1" stop-color="#0b1020"/></linearGradient>
    <linearGradient id="accent" x1="0" y1="0" x2="1" y2="0"><stop offset="0" stop-color="#38bdf8"/><stop offset="1" stop-color="#f59e0b"/></linearGradient>
    <filter id="shadow"><feDropShadow dx="0" dy="12" stdDeviation="16" flood-color="#000" flood-opacity="0.35"/></filter>
  </defs>
  <rect width="900" height="383" fill="url(#bg)"/>
  <circle cx="710" cy="72" r="150" fill="#1e3a8a" opacity="0.23"/>
  <circle cx="114" cy="305" r="170" fill="#7c2d12" opacity="0.20"/>
  <g opacity="0.42" stroke="#334155" stroke-width="1">
    <path d="M80 270 C190 190, 290 260, 390 150 S630 75, 800 138" fill="none"/>
    <path d="M120 145 C270 95, 345 210, 478 182 S650 210, 790 92" fill="none"/>
  </g>
  <g filter="url(#shadow)">
    <rect x="56" y="58" width="258" height="196" rx="24" fill="#111827" stroke="#334155"/>
    <text x="86" y="105" fill="#94a3b8" font-size="24" font-family="PingFang SC, Arial">窄的信息池</text>
    <text x="86" y="155" fill="#e5e7eb" font-size="30" font-family="PingFang SC, Arial" font-weight="700">中文搬运稿</text>
    <text x="86" y="200" fill="#e5e7eb" font-size="30" font-family="PingFang SC, Arial" font-weight="700">二手教程</text>
  </g>
  <path d="M336 156 L505 156" stroke="url(#accent)" stroke-width="7" stroke-linecap="round"/>
  <path d="M485 132 L516 156 L485 180" fill="none" stroke="#f59e0b" stroke-width="7" stroke-linecap="round" stroke-linejoin="round"/>
  <g filter="url(#shadow)">
    <rect x="536" y="58" width="308" height="196" rx="24" fill="#0f172a" stroke="#38bdf8" stroke-opacity="0.5"/>
    <text x="568" y="105" fill="#93c5fd" font-size="24" font-family="PingFang SC, Arial">全球技术网络</text>
    <text x="568" y="155" fill="#f8fafc" font-size="28" font-family="PingFang SC, Arial" font-weight="700">Docs · Issues</text>
    <text x="568" y="198" fill="#f8fafc" font-size="28" font-family="PingFang SC, Arial" font-weight="700">Stack Overflow · Reddit</text>
  </g>
  <text x="58" y="309" fill="#ffffff" font-size="42" font-family="PingFang SC, Arial" font-weight="800">英语不是软技能</text>
  <text x="58" y="351" fill="#fbbf24" font-size="36" font-family="PingFang SC, Arial" font-weight="800">是程序员的底层入口</text>
</svg>