<svg xmlns="http://www.w3.org/2000/svg" width="900" height="383" viewBox="0 0 900 383">
  <defs>
    <linearGradient id="bg" x1="0" y1="0" x2="1" y2="1"><stop offset="0" stop-color="#08111f"/><stop offset="1" stop-color="#15213a"/></linearGradient>
    <filter id="shadow" x="-20%" y="-20%" width="140%" height="140%"><feDropShadow dx="0" dy="12" stdDeviation="14" flood-color="#000" flood-opacity="0.35"/></filter>
  </defs>
  <rect width="900" height="383" fill="url(#bg)"/>
  <g opacity="0.18" stroke="#6aa6ff" stroke-width="1">
    <path d="M0 70 H900 M0 135 H900 M0 200 H900 M0 265 H900 M0 330 H900"/>
    <path d="M80 0 L250 383 M260 0 L430 383 M440 0 L610 383 M620 0 L790 383 M800 0 L970 383"/>
  </g>
  <g filter="url(#shadow)">
    <rect x="62" y="118" width="186" height="124" rx="26" fill="#172033" stroke="#34517a" stroke-width="3"/>
    <rect x="357" y="88" width="186" height="124" rx="26" fill="#1b2b46" stroke="#59a6ff" stroke-width="4"/>
    <rect x="652" y="118" width="186" height="124" rx="26" fill="#172033" stroke="#34517a" stroke-width="3"/>
  </g>
  <g font-family="PingFang SC, Hiragino Sans GB, Arial" text-anchor="middle">
    <text x="155" y="168" font-size="52" font-weight="700" fill="#f8fafc">M</text><text x="155" y="208" font-size="21" fill="#a7b7d4">OS thread</text>
    <text x="450" y="138" font-size="52" font-weight="700" fill="#f8fafc">P</text><text x="450" y="178" font-size="21" fill="#a7b7d4">execution token</text>
    <text x="745" y="168" font-size="52" font-weight="700" fill="#f8fafc">M</text><text x="745" y="208" font-size="21" fill="#a7b7d4">new worker</text>
    <text x="450" y="244" font-size="24" font-weight="700" fill="#70e1c8">P 被交出去，Go 世界继续跑</text>
  </g>
  <g fill="none" stroke="#70e1c8" stroke-width="5" stroke-linecap="round" stroke-linejoin="round">
    <path d="M248 180 C290 150 318 150 357 150"/><path d="M543 150 C590 150 616 160 652 180"/>
  </g>
  <g fill="#70e1c8"><path d="M357 150 l-18 -10 l3 20 z"/><path d="M652 180 l-18 -10 l2 20 z"/></g>
  <text x="76" y="295" font-family="PingFang SC, Hiragino Sans GB, Arial" font-size="34" font-weight="700" fill="#fff">syscall 卡住的是 M，不该锁死 P</text>
  <text x="78" y="332" font-family="PingFang SC, Hiragino Sans GB, Arial" font-size="22" fill="#8fb3ff">syscall handoff · netpoller · work stealing</text>
</svg>