<svg width="900" height="383" viewBox="0 0 900 383" fill="none" xmlns="http://www.w3.org/2000/svg">
  <defs>
    <linearGradient id="bg" x1="92" y1="54" x2="820" y2="320" gradientUnits="userSpaceOnUse">
      <stop stop-color="#0E1728"/>
      <stop offset="1" stop-color="#132C4B"/>
    </linearGradient>
    <linearGradient id="glow" x1="0" y1="0" x2="1" y2="1">
      <stop stop-color="#38BDF8"/>
      <stop offset="1" stop-color="#34D399"/>
    </linearGradient>
  </defs>
  <rect width="900" height="383" rx="28" fill="#08111D"/>
  <rect x="30" y="30" width="840" height="323" rx="26" fill="url(#bg)" stroke="#22324B"/>

  <circle cx="202" cy="192" r="92" fill="#0C1627" stroke="#25354F"/>
  <circle cx="202" cy="192" r="46" fill="#122540" stroke="#4DA3FF" stroke-width="2"/>
  <circle cx="202" cy="192" r="8" fill="#EAF4FF"/>

  <circle cx="104" cy="122" r="10" fill="#34D399"/>
  <circle cx="98" cy="256" r="10" fill="#60A5FA"/>
  <circle cx="298" cy="108" r="10" fill="#F59E0B"/>
  <circle cx="328" cy="248" r="10" fill="#A78BFA"/>

  <path d="M114 122C138 132 150 142 164 156" stroke="#34D399" stroke-width="4" stroke-linecap="round"/>
  <path d="M108 256C136 244 146 234 160 222" stroke="#60A5FA" stroke-width="4" stroke-linecap="round"/>
  <path d="M288 108C266 122 250 136 238 150" stroke="#F59E0B" stroke-width="4" stroke-linecap="round"/>
  <path d="M318 248C286 236 256 224 240 214" stroke="#A78BFA" stroke-width="4" stroke-linecap="round"/>

  <rect x="444" y="108" width="332" height="150" rx="24" fill="#0E1B2F" fill-opacity="0.74" stroke="#2C4260"/>
  <text x="478" y="168" fill="#F8FAFC" font-family="Arial, sans-serif" font-size="48" font-weight="700">SOCKET</text>
  <text x="478" y="206" fill="#D7E7FF" font-family="Arial, sans-serif" font-size="22">不是黑话</text>
  <text x="478" y="238" fill="#9FB7D9" font-family="Arial, sans-serif" font-size="20">是进程的通信入口</text>

  <rect x="444" y="278" width="332" height="44" rx="14" fill="#101D31" stroke="#263A54"/>
  <text x="478" y="306" fill="#CBD5E1" font-family="Arial, sans-serif" font-size="18">把 TCP、UDP、UDS 重新讲顺</text>
</svg>