<svg xmlns="http://www.w3.org/2000/svg" width="900" height="383" viewBox="0 0 900 383">
  <defs>
    <linearGradient id="bg" x1="0" y1="0" x2="1" y2="1"><stop offset="0" stop-color="#07111f"/><stop offset="1" stop-color="#172033"/></linearGradient>
    <linearGradient id="hot" x1="0" y1="0" x2="1" y2="1"><stop offset="0" stop-color="#ff8a4c"/><stop offset="1" stop-color="#e74747"/></linearGradient>
  </defs>
  <rect width="900" height="383" fill="url(#bg)"/>
  <g opacity="0.24" stroke="#89a6ff" stroke-width="1">
    <path d="M80 330 C180 240, 260 280, 340 170 S520 120, 620 210 S780 250, 840 110" fill="none"/>
    <path d="M120 90 L250 150 L390 88 L540 160 L720 90" fill="none"/>
  </g>
  <g transform="translate(68 82)">
    <rect x="0" y="0" width="300" height="210" rx="28" fill="#0d1a2b" stroke="#263a5c" stroke-width="2"/>
    <text x="36" y="55" font-family="PingFang SC, Arial" font-size="28" font-weight="700" fill="#eaf1ff">数据库能力</text>
    <g font-family="PingFang SC, Arial" font-size="18" fill="#b9c7dd">
      <text x="38" y="98">约束</text><text x="138" y="98">事务</text><text x="238" y="98">完整性</text>
      <text x="38" y="142">索引</text><text x="138" y="142">触发器</text><text x="238" y="142">契约</text>
    </g>
    <rect x="36" y="164" width="228" height="32" rx="16" fill="#142640"/>
    <text x="56" y="186" font-family="PingFang SC, Arial" font-size="16" fill="#7fcfff">不只是电子表格</text>
  </g>
  <g transform="translate(398 82)">
    <rect x="0" y="0" width="88" height="210" rx="18" fill="url(#hot)" opacity="0.96"/>
    <text x="44" y="77" text-anchor="middle" font-family="PingFang SC, Arial" font-size="24" font-weight="700" fill="#fff">MySQL</text>
    <text x="44" y="118" text-anchor="middle" font-family="PingFang SC, Arial" font-size="18" fill="#fff3eb">坑</text>
    <text x="44" y="152" text-anchor="middle" font-family="PingFang SC, Arial" font-size="18" fill="#fff3eb">变成</text>
    <text x="44" y="186" text-anchor="middle" font-family="PingFang SC, Arial" font-size="18" fill="#fff3eb">常识</text>
  </g>
  <g transform="translate(540 84)">
    <text x="0" y="42" font-family="PingFang SC, Arial" font-size="44" font-weight="800" fill="#f4f7ff">又蠢又坏？</text>
    <text x="0" y="92" font-family="PingFang SC, Arial" font-size="24" fill="#c8d4e6">问题不只是 bug</text>
    <text x="0" y="129" font-family="PingFang SC, Arial" font-size="24" fill="#c8d4e6">而是它教会大家</text>
    <text x="0" y="166" font-family="PingFang SC, Arial" font-size="24" fill="#c8d4e6">别相信数据库能力</text>
    <rect x="0" y="197" width="280" height="38" rx="19" fill="#0f243a" stroke="#2f4b70"/>
    <text x="22" y="222" font-family="PingFang SC, Arial" font-size="17" fill="#8fd8ff">MySQL 设计缺陷与工程认知</text>
  </g>
</svg>