<svg xmlns="http://www.w3.org/2000/svg" width="900" height="383" viewBox="0 0 900 383" role="img" aria-label="TypeScript 与 Go native port 封面图">
  <defs>
    <linearGradient id="bg" x1="0" y1="0" x2="1" y2="1">
      <stop offset="0" stop-color="#0b1220"/>
      <stop offset="0.48" stop-color="#0f2c5c"/>
      <stop offset="1" stop-color="#06151d"/>
    </linearGradient>
    <radialGradient id="glow" cx="50%" cy="50%" r="55%">
      <stop offset="0" stop-color="#38bdf8" stop-opacity="0.55"/>
      <stop offset="1" stop-color="#38bdf8" stop-opacity="0"/>
    </radialGradient>
    <filter id="shadow" x="-20%" y="-20%" width="140%" height="140%">
      <feDropShadow dx="0" dy="18" stdDeviation="18" flood-color="#000" flood-opacity="0.35"/>
    </filter>
  </defs>
  <rect width="900" height="383" fill="url(#bg)"/>
  <circle cx="680" cy="170" r="170" fill="url(#glow)"/>
  <circle cx="166" cy="85" r="118" fill="#2563eb" opacity="0.14"/>
  <path d="M0 310 C150 255 260 345 390 288 C525 228 640 245 900 170 L900 383 L0 383 Z" fill="#03111d" opacity="0.58"/>

  <g transform="translate(64 82)" filter="url(#shadow)">
    <rect x="0" y="0" width="165" height="165" rx="24" fill="#3178c6"/>
    <text x="82" y="113" font-family="Inter,Arial,sans-serif" font-size="78" font-weight="800" text-anchor="middle" fill="white">TS</text>
  </g>

  <g transform="translate(690 82)" filter="url(#shadow)">
    <ellipse cx="72" cy="82" rx="82" ry="66" fill="#78d7e9"/>
    <circle cx="38" cy="64" r="14" fill="white"/>
    <circle cx="104" cy="64" r="14" fill="white"/>
    <circle cx="39" cy="65" r="6" fill="#111827"/>
    <circle cx="103" cy="65" r="6" fill="#111827"/>
    <path d="M42 105 C62 122 86 122 104 105" fill="none" stroke="#111827" stroke-width="6" stroke-linecap="round"/>
    <path d="M23 19 C37 -2 62 -1 72 24" fill="none" stroke="#78d7e9" stroke-width="16" stroke-linecap="round"/>
    <path d="M121 21 C104 -1 83 0 72 24" fill="none" stroke="#78d7e9" stroke-width="16" stroke-linecap="round"/>
  </g>

  <g opacity="0.9">
    <path d="M258 166 L626 166" stroke="#7dd3fc" stroke-width="5" stroke-linecap="round" stroke-dasharray="18 14"/>
    <path d="M610 145 L640 166 L610 187" fill="none" stroke="#7dd3fc" stroke-width="5" stroke-linecap="round" stroke-linejoin="round"/>
  </g>

  <text x="450" y="92" font-family="Inter,Arial,'PingFang SC','Microsoft YaHei',sans-serif" font-size="26" font-weight="700" text-anchor="middle" fill="#93c5fd">native port</text>
  <text x="450" y="146" font-family="Inter,Arial,'PingFang SC','Microsoft YaHei',sans-serif" font-size="48" font-weight="900" text-anchor="middle" fill="#ffffff">10x Faster TypeScript</text>
  <text x="450" y="205" font-family="Inter,Arial,'PingFang SC','Microsoft YaHei',sans-serif" font-size="32" font-weight="800" text-anchor="middle" fill="#e0f2fe">不是语言胜负，是工程约束</text>
  <text x="450" y="260" font-family="Inter,Arial,'PingFang SC','Microsoft YaHei',sans-serif" font-size="20" font-weight="500" text-anchor="middle" fill="#cbd5e1">TypeScript × Go × Compiler Tools</text>
</svg>
