<svg xmlns="http://www.w3.org/2000/svg" width="900" height="383" viewBox="0 0 900 383">
  <defs>
    <linearGradient id="bg" x1="0" y1="0" x2="1" y2="1">
      <stop offset="0" stop-color="#07111f"/>
      <stop offset="0.55" stop-color="#0d1f2d"/>
      <stop offset="1" stop-color="#102a32"/>
    </linearGradient>
    <filter id="glow" x="-40%" y="-40%" width="180%" height="180%">
      <feGaussianBlur stdDeviation="8" result="blur"/>
      <feMerge><feMergeNode in="blur"/><feMergeNode in="SourceGraphic"/></feMerge>
    </filter>
  </defs>
  <rect width="900" height="383" fill="url(#bg)"/>
  <g opacity="0.18" stroke="#66e3ff" stroke-width="1">
    <path d="M72 68 C180 35, 260 100, 350 72 S530 54, 620 90 S750 130, 830 82" fill="none"/>
    <path d="M60 305 C170 250, 290 338, 390 280 S580 250, 710 302 S810 335, 865 285" fill="none"/>
  </g>
  <g transform="translate(70 70)">
    <rect x="0" y="0" width="330" height="235" rx="24" fill="#0b1624" stroke="#2c6d83" stroke-width="2"/>
    <text x="28" y="45" fill="#8ee8ff" font-size="27" font-family="Arial, Helvetica, sans-serif" font-weight="700">hchan</text>
    <rect x="28" y="70" width="265" height="45" rx="12" fill="#10283a" stroke="#4aa9c8"/>
    <text x="48" y="99" fill="#d8f6ff" font-size="18" font-family="Arial, Helvetica, sans-serif">buf · sendx · recvx</text>
    <rect x="28" y="132" width="120" height="58" rx="14" fill="#132a26" stroke="#59d29b"/>
    <text x="50" y="166" fill="#d8ffe9" font-size="18" font-family="Arial, Helvetica, sans-serif">recvq</text>
    <rect x="173" y="132" width="120" height="58" rx="14" fill="#2a1f20" stroke="#ffb36a"/>
    <text x="197" y="166" fill="#ffe2bd" font-size="18" font-family="Arial, Helvetica, sans-serif">sendq</text>
    <circle cx="162" cy="212" r="9" fill="#ffcc66" filter="url(#glow)"/>
    <text x="180" y="219" fill="#ffdfa0" font-size="16" font-family="Arial, Helvetica, sans-serif">lock</text>
  </g>
  <g transform="translate(455 85)">
    <text x="0" y="0" fill="#ffffff" font-size="38" font-family="Arial, Helvetica, sans-serif" font-weight="800">Go channel 源码</text>
    <text x="0" y="50" fill="#ffffff" font-size="34" font-family="Arial, Helvetica, sans-serif" font-weight="800">不是在讲队列</text>
    <text x="0" y="100" fill="#7de4ff" font-size="28" font-family="Arial, Helvetica, sans-serif" font-weight="700">而是在讲 goroutine 怎么排队</text>
    <rect x="0" y="138" width="330" height="2" fill="#2d9fbd"/>
    <text x="0" y="178" fill="#b8c7d1" font-size="20" font-family="Arial, Helvetica, sans-serif">hchan · send/recv · close · select</text>
  </g>
</svg>
