<svg xmlns="http://www.w3.org/2000/svg" width="900" height="383" viewBox="0 0 900 383">
  <defs>
    <linearGradient id="bg" x1="0" y1="0" x2="1" y2="1">
      <stop offset="0" stop-color="#07101f"/>
      <stop offset="0.55" stop-color="#0c1930"/>
      <stop offset="1" stop-color="#111827"/>
    </linearGradient>
    <filter id="glow" x="-50%" y="-50%" width="200%" height="200%">
      <feGaussianBlur stdDeviation="3" result="blur"/>
      <feMerge><feMergeNode in="blur"/><feMergeNode in="SourceGraphic"/></feMerge>
    </filter>
  </defs>
  <rect width="900" height="383" fill="url(#bg)"/>
  <g opacity="0.14" stroke="#7dd3fc" stroke-width="1">
    <path d="M0 72H900M0 144H900M0 216H900M0 288H900"/>
    <path d="M90 0V383M180 0V383M270 0V383M360 0V383M450 0V383M540 0V383M630 0V383M720 0V383M810 0V383"/>
  </g>
  <text x="72" y="86" fill="#e5f2ff" font-size="35" font-family="PingFang SC, Hiragino Sans GB, Heiti SC, sans-serif" font-weight="700">channel 最容易翻车的</text>
  <text x="72" y="132" fill="#7dd3fc" font-size="35" font-family="PingFang SC, Hiragino Sans GB, Heiti SC, sans-serif" font-weight="700">不是发送接收，而是 close</text>
  <text x="75" y="166" fill="#9ca3af" font-size="16" font-family="Menlo, Monaco, monospace">send / receive / select / buffer / lifecycle</text>

  <g transform="translate(75,208)" filter="url(#glow)">
    <line x1="35" y1="0" x2="445" y2="0" stroke="#38bdf8" stroke-width="5" stroke-linecap="round" opacity="0.7"/>
    <g fill="#12334a" stroke="#67e8f9" stroke-width="3">
      <circle cx="40" cy="0" r="37"/><circle cx="160" cy="0" r="37"/><circle cx="280" cy="0" r="37"/><circle cx="400" cy="0" r="37"/>
    </g>
    <g fill="#86efac">
      <circle cx="100" cy="0" r="7"/><circle cx="220" cy="0" r="7"/><circle cx="340" cy="0" r="7"/>
    </g>
    <g stroke="#ff5c5c" stroke-width="13" stroke-linecap="round">
      <line x1="462" y1="-45" x2="512" y2="45"/>
      <line x1="512" y1="-45" x2="462" y2="45"/>
    </g>
    <circle cx="540" cy="0" r="37" fill="#531f35" stroke="#67e8f9" stroke-width="3"/>
    <line x1="578" y1="0" x2="720" y2="0" stroke="#ef4444" stroke-width="10"/>
  </g>

  <g transform="translate(655,77)">
    <path d="M0 62 L52 0 L104 62 Z" fill="none" stroke="#f59e0b" stroke-width="7"/>
    <line x1="52" y1="23" x2="52" y2="46" stroke="#f59e0b" stroke-width="8"/>
    <circle cx="52" cy="57" r="4" fill="#f59e0b"/>
    <text x="-2" y="100" fill="#fecaca" font-size="18" font-family="Menlo, Monaco, monospace" font-weight="700">panic</text>
    <text x="-2" y="125" fill="#fecaca" font-size="18" font-family="Menlo, Monaco, monospace" font-weight="700">send on closed channel</text>
  </g>
  <text x="72" y="342" fill="#d1d5db" font-size="22" font-family="PingFang SC, Hiragino Sans GB, Heiti SC, sans-serif">close 不是刹车，是发送端的完工声明</text>
</svg>