<svg xmlns="http://www.w3.org/2000/svg" width="900" height="383" viewBox="0 0 900 383" role="img" aria-label="Cursor Agent 工作流封面">
  <defs>
    <linearGradient id="bg" x1="0" y1="0" x2="1" y2="1">
      <stop offset="0" stop-color="#07111f"/>
      <stop offset="0.55" stop-color="#0f172a"/>
      <stop offset="1" stop-color="#101827"/>
    </linearGradient>
    <radialGradient id="glow" cx="36%" cy="45%" r="52%">
      <stop offset="0" stop-color="#22d3ee" stop-opacity="0.34"/>
      <stop offset="0.55" stop-color="#2563eb" stop-opacity="0.12"/>
      <stop offset="1" stop-color="#2563eb" stop-opacity="0"/>
    </radialGradient>
    <filter id="softShadow" x="-20%" y="-20%" width="140%" height="140%">
      <feDropShadow dx="0" dy="18" stdDeviation="18" flood-color="#000" flood-opacity="0.32"/>
    </filter>
  </defs>
  <rect width="900" height="383" fill="url(#bg)"/>
  <rect width="900" height="383" fill="url(#glow)"/>
  <g opacity="0.16" stroke="#94a3b8" stroke-width="1">
    <path d="M84 76H390M84 134H338M84 192H410M84 250H318M84 308H372"/>
    <path d="M62 58V326M434 58V326"/>
  </g>
  <g filter="url(#softShadow)">
    <rect x="76" y="88" width="300" height="206" rx="24" fill="#0b1220" stroke="#334155"/>
    <rect x="100" y="116" width="154" height="14" rx="7" fill="#38bdf8" opacity="0.85"/>
    <rect x="100" y="150" width="230" height="12" rx="6" fill="#64748b" opacity="0.75"/>
    <rect x="100" y="178" width="190" height="12" rx="6" fill="#64748b" opacity="0.75"/>
    <rect x="100" y="220" width="98" height="38" rx="19" fill="#2563eb"/>
    <text x="149" y="244" text-anchor="middle" font-family="-apple-system,BlinkMacSystemFont,Segoe UI,sans-serif" font-size="15" font-weight="800" fill="#fff">Agent</text>
    <circle cx="324" cy="238" r="18" fill="#22c55e" opacity="0.92"/>
    <path d="M316 238l6 6 12-15" fill="none" stroke="#fff" stroke-width="4" stroke-linecap="round" stroke-linejoin="round"/>
  </g>
  <g stroke="#38bdf8" stroke-width="3" fill="none" stroke-linecap="round" opacity="0.82">
    <path d="M400 190C447 136 487 136 532 190"/>
    <path d="M400 190C447 244 487 244 532 190"/>
    <path d="M515 174l18 16-18 16"/>
  </g>
  <g font-family="-apple-system,BlinkMacSystemFont,Segoe UI,sans-serif">
    <text x="562" y="135" font-size="44" font-weight="900" fill="#f8fafc">别把 Agent</text>
    <text x="562" y="188" font-size="44" font-weight="900" fill="#f8fafc">用成自动补全</text>
    <text x="564" y="232" font-size="20" font-weight="700" fill="#93c5fd">Cursor 真正要学的是控制流程</text>
    <g transform="translate(562 264)">
      <rect width="224" height="44" rx="22" fill="#172554" stroke="#2563eb"/>
      <text x="112" y="29" text-anchor="middle" font-size="16" font-weight="800" fill="#bfdbfe">计划 · 边界 · 验收 · 回滚</text>
    </g>
  </g>
</svg>
