<svg xmlns="http://www.w3.org/2000/svg" width="900" height="383" viewBox="0 0 900 383">
  <defs>
    <linearGradient id="bg" x1="0" y1="0" x2="1" y2="1">
      <stop offset="0%" stop-color="#0b1020"/>
      <stop offset="55%" stop-color="#101827"/>
      <stop offset="100%" stop-color="#07111f"/>
    </linearGradient>
    <linearGradient id="card" x1="0" y1="0" x2="1" y2="1">
      <stop offset="0%" stop-color="#172033"/>
      <stop offset="100%" stop-color="#0f172a"/>
    </linearGradient>
    <filter id="glow" x="-30%" y="-30%" width="160%" height="160%">
      <feGaussianBlur stdDeviation="8" result="blur"/>
      <feMerge><feMergeNode in="blur"/><feMergeNode in="SourceGraphic"/></feMerge>
    </filter>
  </defs>
  <rect width="900" height="383" fill="url(#bg)"/>
  <g opacity="0.18" stroke="#4dd0e1" stroke-width="1">
    <path d="M40 60 H840"/><path d="M40 130 H840"/><path d="M40 200 H840"/><path d="M40 270 H840"/><path d="M140 35 V345"/><path d="M300 35 V345"/><path d="M460 35 V345"/><path d="M620 35 V345"/><path d="M780 35 V345"/>
  </g>
  <g transform="translate(70,72)">
    <rect x="0" y="0" width="410" height="242" rx="24" fill="#0b1220" stroke="#28435f"/>
    <text x="28" y="38" fill="#8bd3ff" font-family="Arial, PingFang SC, sans-serif" font-size="18" font-weight="700">KANBAN / AGENT ORCHESTRATION</text>
    <g transform="translate(28,66)">
      <rect x="0" y="0" width="105" height="138" rx="16" fill="#101a2d" stroke="#2b4867"/>
      <rect x="14" y="22" width="76" height="22" rx="7" fill="#1f6feb" opacity="0.9"/>
      <rect x="14" y="58" width="76" height="22" rx="7" fill="#2dd4bf" opacity="0.8"/>
      <rect x="14" y="94" width="76" height="22" rx="7" fill="#f59e0b" opacity="0.85"/>
      <text x="52" y="162" text-anchor="middle" fill="#dbeafe" font-size="14" font-family="Arial, PingFang SC">任务</text>
    </g>
    <g transform="translate(152,66)">
      <rect x="0" y="0" width="105" height="138" rx="16" fill="#101a2d" stroke="#2b4867"/>
      <circle cx="52" cy="45" r="24" fill="#22c55e" opacity="0.9" filter="url(#glow)"/>
      <path d="M33 84 C55 68,75 68,92 84" stroke="#8bd3ff" stroke-width="3" fill="none"/>
      <text x="52" y="162" text-anchor="middle" fill="#dbeafe" font-size="14" font-family="Arial, PingFang SC">执行</text>
    </g>
    <g transform="translate(276,66)">
      <rect x="0" y="0" width="105" height="138" rx="16" fill="#101a2d" stroke="#2b4867"/>
      <path d="M28 45 H78 M28 70 H78 M28 95 H62" stroke="#fbbf24" stroke-width="7" stroke-linecap="round"/>
      <circle cx="80" cy="96" r="15" fill="#ef4444" opacity="0.88"/>
      <text x="52" y="162" text-anchor="middle" fill="#dbeafe" font-size="14" font-family="Arial, PingFang SC">审核</text>
    </g>
  </g>
  <g transform="translate(530,86)">
    <text x="0" y="0" fill="#ffffff" font-family="Arial, PingFang SC, sans-serif" font-size="42" font-weight="800">Agent 越会写代码</text>
    <text x="0" y="56" fill="#ffffff" font-family="Arial, PingFang SC, sans-serif" font-size="42" font-weight="800">你越需要看板</text>
    <rect x="0" y="92" width="296" height="2" fill="#38bdf8" opacity="0.9"/>
    <text x="0" y="132" fill="#cbd5e1" font-family="Arial, PingFang SC, sans-serif" font-size="20">从手搓任务流</text>
    <text x="0" y="164" fill="#cbd5e1" font-family="Arial, PingFang SC, sans-serif" font-size="20">到多 Agent 编排时代</text>
    <g transform="translate(0,205)">
      <rect x="0" y="0" width="88" height="34" rx="17" fill="#172554" stroke="#38bdf8"/>
      <text x="44" y="23" text-anchor="middle" fill="#e0f2fe" font-size="14" font-family="Arial">claim</text>
      <rect x="104" y="0" width="88" height="34" rx="17" fill="#14532d" stroke="#22c55e"/>
      <text x="148" y="23" text-anchor="middle" fill="#dcfce7" font-size="14" font-family="Arial">run</text>
      <rect x="208" y="0" width="126" height="34" rx="17" fill="#451a03" stroke="#f59e0b"/>
      <text x="271" y="23" text-anchor="middle" fill="#fffbeb" font-size="14" font-family="Arial">review-required</text>
    </g>
  </g>
</svg>