<svg xmlns="http://www.w3.org/2000/svg" width="1200" height="620" viewBox="0 0 1200 620"><rect width="1200" height="620" rx="26" fill="#0f172a"/><text x="600" y="92" text-anchor="middle" fill="#f8fafc" font-size="42" font-weight="800" font-family="Arial, PingFang SC, sans-serif">从告警到根因的排查链路</text><text x="600" y="140" text-anchor="middle" fill="#94a3b8" font-size="22" font-family="Arial, PingFang SC, sans-serif">不要把所有内存问题都叫 GC 问题</text><path d="M235 282 H290" stroke="#38bdf8" stroke-width="4" stroke-linecap="round"/><path d="M290 282 l-12 -8 v16 z" fill="#38bdf8"/><path d="M475 282 H530" stroke="#38bdf8" stroke-width="4" stroke-linecap="round"/><path d="M530 282 l-12 -8 v16 z" fill="#38bdf8"/><path d="M715 282 H770" stroke="#38bdf8" stroke-width="4" stroke-linecap="round"/><path d="M770 282 l-12 -8 v16 z" fill="#38bdf8"/><path d="M955 282 H1010" stroke="#38bdf8" stroke-width="4" stroke-linecap="round"/><path d="M1010 282 l-12 -8 v16 z" fill="#38bdf8"/><g transform="translate(70 210)"><rect width="150" height="145" rx="20" fill="#111827" stroke="#334155" stroke-width="2"/><text x="75" y="45" text-anchor="middle" fill="#f8fafc" font-size="28" font-weight="700" font-family="Arial, PingFang SC, sans-serif">告警</text><text x="75" y="88" text-anchor="middle" fill="#93c5fd" font-size="18" font-family="Arial, PingFang SC, sans-serif">OOMKilled</text><text x="75" y="116" text-anchor="middle" fill="#93c5fd" font-size="18" font-family="Arial, PingFang SC, sans-serif">GC CPU 高</text></g><g transform="translate(310 210)"><rect width="150" height="145" rx="20" fill="#111827" stroke="#334155" stroke-width="2"/><text x="75" y="45" text-anchor="middle" fill="#f8fafc" font-size="28" font-weight="700" font-family="Arial, PingFang SC, sans-serif">确认</text><text x="75" y="88" text-anchor="middle" fill="#93c5fd" font-size="18" font-family="Arial, PingFang SC, sans-serif">describe pod</text><text x="75" y="116" text-anchor="middle" fill="#93c5fd" font-size="18" font-family="Arial, PingFang SC, sans-serif">working set</text></g><g transform="translate(550 210)"><rect width="150" height="145" rx="20" fill="#111827" stroke="#334155" stroke-width="2"/><text x="75" y="45" text-anchor="middle" fill="#f8fafc" font-size="28" font-weight="700" font-family="Arial, PingFang SC, sans-serif">采样</text><text x="75" y="88" text-anchor="middle" fill="#93c5fd" font-size="18" font-family="Arial, PingFang SC, sans-serif">heap / goroutine</text><text x="75" y="116" text-anchor="middle" fill="#93c5fd" font-size="18" font-family="Arial, PingFang SC, sans-serif">diff_base</text></g><g transform="translate(790 210)"><rect width="150" height="145" rx="20" fill="#111827" stroke="#334155" stroke-width="2"/><text x="75" y="45" text-anchor="middle" fill="#f8fafc" font-size="28" font-weight="700" font-family="Arial, PingFang SC, sans-serif">分类</text><text x="75" y="88" text-anchor="middle" fill="#93c5fd" font-size="18" font-family="Arial, PingFang SC, sans-serif">泄漏 / 分配</text><text x="75" y="116" text-anchor="middle" fill="#93c5fd" font-size="18" font-family="Arial, PingFang SC, sans-serif">RSS / limit</text></g><g transform="translate(1030 210)"><rect width="150" height="145" rx="20" fill="#111827" stroke="#334155" stroke-width="2"/><text x="75" y="45" text-anchor="middle" fill="#f8fafc" font-size="28" font-weight="700" font-family="Arial, PingFang SC, sans-serif">修复</text><text x="75" y="88" text-anchor="middle" fill="#93c5fd" font-size="18" font-family="Arial, PingFang SC, sans-serif">代码生命周期</text><text x="75" y="116" text-anchor="middle" fill="#93c5fd" font-size="18" font-family="Arial, PingFang SC, sans-serif">配置护栏</text></g><rect x="165" y="450" width="870" height="64" rx="20" fill="#082f49" stroke="#0ea5e9"/><text x="600" y="492" text-anchor="middle" fill="#e0f2fe" font-size="24" font-weight="700" font-family="Arial, PingFang SC, sans-serif">先把账查清楚，再决定修代码、设 GOMEMLIMIT，还是调整 limit</text></svg>